<svg xmlns="http://www.w3.org/2000/svg" xmlns:xlink="http://www.w3.org/1999/xlink" aria-hidden="true" role="img" class="iconify iconify--logos" width="31.88" height="32" preserveAspectRatio="xMidYMid meet" viewBox="0 0 256 257"><defs><linearGradient id="IconifyId1813088fe1fbc01" x1="-.828%" x2="57.636%" y1="7.652%" y2="78.411%"><stop offset="0%" stop-color="#41D1FF"></stop><stop offset="100%" stop-color="#BD34FE"></stop></linearGradient><linearGradient id="IconifyId1813088fe1fbc02" x1="43.376%" x2="50.325%" y1="2.242%" y2="89.03%"><stop offset="0%" stop-color="#FFEA83"></stop><stop offset="8.333%" stop-color="#FFDD35"></stop><stop offset="100%" stop-color="#FFA800"></stop></linearGradient></defs><path fill="url(#IconifyId1813088fe1fbc01)" d="M255.153 151.09L133.986 251.307L133.986 251.307C129.293 255.188 122.513 255.074 117.95 251.042L117.95 251.042L0.847 147.411L113.842 15.358L113.842 15.358C117.202 11.439 122.695 10.158 127.42 12.191L127.42 12.191L248.601 64.316L248.601 64.316C254.493 66.851 257.65 73.475 255.707 79.52L219.866 190.961L255.153 151.09Z"></path><path fill="url(#IconifyId1813088fe1fbc02)" d="M129.352 1.343L129.352 1.343C125.751 -0.448 121.365 -0.448 117.764 1.344L117.764 1.344L14.717 52.709C6.884 56.613 2.158 64.712 2.158 73.483V176.241C2.158 181.82 5.86 186.745 11.233 188.318L11.233 188.318L120.375 220.217C122.457 220.825 124.659 220.825 126.741 220.217L126.741 220.217L235.883 188.318C241.256 186.745 244.958 181.82 244.958 176.241V73.483C244.958 64.712 240.231 56.613 232.399 52.709L129.352 1.343Z"></path></svg>
